<?xml version="1.0" encoding="UTF-8"?>
<svg xmlns="http://www.w3.org/2000/svg" xmlns:xlink="http://www.w3.org/1999/xlink" width="150pt" height="150pt" viewBox="0 0 150 150" version="1.1">
<g id="surface11182641">
<path style=" stroke:none;fill-rule:nonzero;fill:rgb(10.196078%,73.72549%,61.176471%);fill-opacity:1;" d="M 138 17.730469 L 138 78.039062 C 137.914062 78.039062 137.828125 78.039062 137.742188 78.039062 C 132.945312 78.039062 128.144531 79.835938 124.84375 83.4375 L 118.542969 89.738281 L 85.84375 122.738281 C 84.644531 123.9375 84.042969 125.136719 83.445312 126.636719 L 80.222656 138 L 17.730469 138 C 14.414062 138 12 135.585938 12 132.269531 L 12 17.730469 C 12 14.414062 14.414062 12 17.730469 12 L 132.269531 12 C 135.585938 12 138 14.414062 138 17.730469 Z M 138 132.269531 C 138 135.585938 135.585938 138 132.269531 138 L 121.964844 138 L 138 122.089844 Z M 55.382812 75.140625 C 55.382812 67.617188 58.394531 64.734375 61.722656 64.734375 C 63.035156 64.734375 63.796875 65.015625 64.464844 65.320312 L 65.460938 60.375 C 64.875 59.964844 63.433594 59.566406 61.359375 59.566406 C 55.464844 59.566406 49.125 64.019531 49.125 75.445312 C 49.125 84.046875 52.816406 90.433594 60.550781 90.433594 C 62.625 90.433594 64.289062 90.117188 65.144531 89.71875 L 64.558594 84.761719 C 63.84375 84.984375 62.71875 85.21875 61.722656 85.21875 C 58.125 85.21875 55.382812 82.382812 55.382812 75.140625 Z M 82.699219 81.257812 C 82.699219 78.058594 81.210938 75 77.203125 72.574219 C 73.921875 70.59375 73.019531 69.644531 73.019531 67.839844 C 73.019531 66.222656 74.238281 64.699219 76.757812 64.699219 C 78.46875 64.699219 79.769531 65.191406 80.625 65.730469 L 81.574219 60.644531 C 80.671875 60.105469 78.785156 59.566406 76.804688 59.566406 C 70.453125 59.566406 67.21875 63.609375 67.21875 68.472656 C 67.21875 71.214844 68.789062 74.414062 72.925781 76.933594 C 75.492188 78.597656 76.839844 79.675781 76.839844 81.890625 C 76.839844 83.859375 75.492188 85.300781 72.703125 85.300781 C 70.992188 85.300781 68.929688 84.808594 67.710938 84.140625 L 66.855469 89.214844 C 67.839844 89.800781 70.230469 90.433594 72.65625 90.433594 C 78.597656 90.433594 82.6875 86.789062 82.699219 81.257812 Z M 100.429688 81.257812 C 100.429688 78.058594 98.941406 75 94.933594 72.574219 C 91.652344 70.59375 90.75 69.644531 90.75 67.839844 C 90.75 66.222656 91.96875 64.699219 94.488281 64.699219 C 96.199219 64.699219 97.5 65.191406 98.355469 65.730469 L 99.304688 60.644531 C 98.402344 60.105469 96.515625 59.566406 94.535156 59.566406 C 88.183594 59.566406 84.949219 63.609375 84.949219 68.472656 C 84.949219 71.214844 86.519531 74.414062 90.65625 76.933594 C 93.222656 78.597656 94.570312 79.675781 94.570312 81.890625 C 94.570312 83.859375 93.222656 85.300781 90.433594 85.300781 C 88.722656 85.300781 86.660156 84.808594 85.441406 84.140625 L 84.585938 89.214844 C 85.570312 89.800781 87.960938 90.433594 90.386719 90.433594 C 96.328125 90.433594 100.429688 86.789062 100.429688 81.257812 Z M 100.429688 81.257812 "/>
<path style=" stroke:none;fill-rule:nonzero;fill:rgb(68.235294%,67.058824%,67.058824%);fill-opacity:1;" d="M 137.699219 84.074219 C 134.699219 84.074219 132 85.273438 129.601562 87.375 L 129 87.675781 L 125.101562 91.574219 L 90 126.976562 C 89.699219 127.273438 89.398438 127.875 89.101562 128.175781 L 84 146.175781 C 83.398438 147.675781 84.300781 149.476562 86.101562 149.773438 C 86.699219 150.074219 87.300781 150.074219 87.601562 149.773438 L 105.601562 144.976562 C 106.199219 144.976562 106.5 144.675781 107.101562 144.074219 L 145.5 105.675781 L 146.398438 105.074219 C 151.199219 100.273438 151.199219 92.476562 146.398438 87.675781 C 144 84.976562 140.699219 84.074219 137.699219 84.074219 Z M 137.699219 90.074219 C 139.199219 90.074219 141 90.675781 142.199219 91.875 C 144.601562 94.273438 144.601562 97.875 142.5 100.273438 L 133.800781 91.574219 C 135 90.675781 136.199219 90.074219 137.699219 90.074219 Z M 129.300781 95.773438 L 138.300781 104.773438 L 103.5 139.574219 L 94.800781 130.875 L 94.800781 130.574219 Z M 129.300781 95.773438 "/>
</g>
</svg>
